<svg xmlns="http://www.w3.org/2000/svg" version="1.1" xmlns:xlink="http://www.w3.org/1999/xlink" xmlns:svgjs="http://svgjs.dev/svgjs" width="100%" height="100%" viewBox="0 0 1000 600"><rect width="1000" height="600" x="0" y="0" fill="#e2d1f9"/><g><circle r="166.66666666666666" cx="390.61461893717444" cy="409.0830697980622" fill="black" transform="matrix(0.5676807800880053,0,0,0.5676807800880054,-0.9212532072804831,67.77140567088709)"/><path d="M243.35442003554925 334.0830931524298L286.019004106479 457.8279685174957L328.8594037711075 334.0830931524298L350.4847217960705 334.0830931524298L294.86838898932285 484.08309717652935L277.3454348173339 484.08309717652935L221.81700980743574 334.0830931524298L243.35442003554925 334.0830931524298ZM390.482769362567 334.0830931524298L390.482769362567 467.9080625562318L461.5415718158668 467.9080625562318L461.5415718158668 484.08309717652935L370.5863046756431 484.08309717652935L370.5863046756431 334.0830931524298L390.482769362567 334.0830931524298ZM559.4122523082467 334.0830931524298L559.4122523082467 350.3753381685265L511.20947703580214 350.3753381685265L511.20947703580214 484.08309717652935L491.51813054152683 484.08309717652935L491.51813054152683 350.3753381685265L443.4325656648815 350.3753381685265L443.4325656648815 334.0830931524298L559.4122523082467 334.0830931524298Z " fill="#e2d1f9" transform="matrix(0.5676807800880053,0,0,0.5676807800880054,-0.9212532072804831,67.77140567088709)"/><path d="M721.1337421845317 401.85262935929273L721.1337421845317 417.5970674197147L659.8673419059332 417.5970674197147L659.8673419059332 482.08651389546463L640.6146323211782 482.08651389546463L640.6146323211782 336.0796689112258L731.0595835704498 336.0796689112258L731.0595835704498 351.9381971025203L659.8673419059332 351.9381971025203L659.8673419059332 401.85262935929273L721.1337421845317 401.85262935929273ZM834.254106944737 482.08651389546463L814.8017396309549 482.08651389546463Q813.2044777987383 478.863467698313 812.1776666208846 470.6489782754842L812.1776666208846 470.6489782754842Q799.2569592995601 484.0830911857355 781.3162862198401 484.0830911857355L781.3162862198401 484.0830911857355Q765.2581002995184 484.0830911857355 754.9899885209825 475.012925781362Q744.6933542097282 465.94276037698853 744.6933542097282 451.9952418778104L744.6933542097282 451.9952418778104Q744.6933542097282 435.05285744322595 757.5855389983346 425.6689441789527Q770.4777237869409 416.3135534473977 793.8376780831104 416.3135534473977L793.8376780831104 416.3135534473977L811.892441293703 416.3135534473977L811.892441293703 407.7853161646691Q811.892441293703 398.05913250777803 806.0738446191992 392.2975808987106Q800.2552479446955 386.5360292896431 788.9318024555877 386.5360292896431L788.9318024555877 386.5360292896431Q779.0059610696695 386.5360292896431 772.2746433481848 391.52747251532037Q765.5718481594182 396.5474382737158 765.5718481594182 403.6780714532547L765.5718481594182 403.6780714532547L746.9181117617444 403.6780714532547Q746.9181117617444 395.5491496285803 752.6796633708118 387.99067845826903Q758.4412149798793 380.4036847552397 768.3100113003611 375.9826921839255Q778.2073301535612 371.59022214532956 790.0156586988776 371.59022214532956L790.0156586988776 371.59022214532956Q808.7834852274241 371.59022214532956 819.4223899312962 380.94561287688464Q830.03277210245 390.3295261411578 830.4320875605042 406.78702751953364L830.4320875605042 406.78702751953364L830.4320875605042 456.72998230902425Q830.4320875605042 471.6472669206197 834.254106944737 480.48925206324793L834.254106944737 480.48925206324793L834.254106944737 482.08651389546463ZM783.9974042953468 467.93933766725945L783.9974042953468 467.93933766725945Q792.7252993071024 467.93933766725945 800.5689958045953 463.4327774977908Q808.3841697693699 458.9262173283222 811.892441293703 451.71001655062884L811.892441293703 451.71001655062884L811.892441293703 429.43391849774923L797.3459496074436 429.43391849774923Q763.2615230092476 429.43391849774923 763.2615230092476 449.3996914004582L763.2615230092476 449.3996914004582Q763.2615230092476 458.1275864122139 769.0801196837513 463.0334620397366Q774.8987163582551 467.93933766725945 783.9974042953468 467.93933766725945ZM866.2278661217896 373.5867994356005L893.8091552602461 456.92964003805133L920.6773810807488 373.5867994356005L939.6448653383222 373.5867994356005L900.740130710758 482.08651389546463L886.5929544825527 482.08651389546463L847.2889043969342 373.5867994356005L866.2278661217896 373.5867994356005ZM977.6368789189056 373.5867994356005L977.6368789189056 482.08651389546463L959.0972326521044 482.08651389546463L959.0972326521044 373.5867994356005L977.6368789189056 373.5867994356005ZM957.5855384180422 344.8075639229814L957.5855384180422 344.8075639229814Q957.5855384180422 340.30100375351276 960.3522240917034 337.1920476872338Q963.0903872326462 334.08309162095486 968.5096684490959 334.08309162095486Q973.9289496655454 334.08309162095486 976.7526804046429 337.1920476872338Q979.547888611022 340.30100375351276 979.547888611022 344.8075639229814Q979.547888611022 349.31412409245 976.7526804046429 352.33751256057445Q973.9289496655454 355.33237849598083 968.5096684490959 355.33237849598083Q963.0903872326462 355.33237849598083 960.3522240917034 352.33751256057445Q957.5855384180422 349.31412409245 957.5855384180422 344.8075639229814ZM1050.8542204064113 468.93762631239485L1050.8542204064113 468.93762631239485Q1060.7800617923294 468.93762631239485 1068.19592029905 462.9478944415822Q1075.6117788057704 456.92964003805133 1076.4104097218788 447.88799716639596L1076.4104097218788 447.88799716639596L1093.9517673435444 447.88799716639596Q1093.4668842873357 457.21486536523287 1087.5341974819594 465.6290125170888Q1081.6300332093012 474.0716822016629 1071.7612368888194 479.09164796005825Q1061.8639180356195 484.0830911857355 1050.8542204064113 484.0830911857355L1050.8542204064113 484.0830911857355Q1028.6922124844043 484.0830911857355 1015.6003699667708 469.30841923773085Q1002.5085274491373 454.5052247570081 1002.5085274491373 428.834945310668L1002.5085274491373 428.834945310668L1002.5085274491373 425.725989244389Q1002.5085274491373 409.89598358581264 1008.3271241236412 397.5457269188512Q1014.1457207981449 385.22399278460796 1025.0128057637621 378.40710746496876Q1035.9084132620976 371.59022214532956 1050.7401302755386 371.59022214532956L1050.7401302755386 371.59022214532956Q1068.9945512151583 371.59022214532956 1081.0881050876562 382.51435217638317Q1093.153136427436 393.4384822074368 1093.9517673435444 410.8942722309481L1093.9517673435444 410.8942722309481L1076.4104097218788 410.8942722309481Q1075.6117788057704 400.3694576579486 1068.4526230935132 393.5810948710276Q1061.264944848538 386.82125461682466 1050.7401302755386 386.82125461682466L1050.7401302755386 386.82125461682466Q1036.5929540473335 386.82125461682466 1028.8348251479952 397.0037987972063Q1021.0481737159386 407.18634297758786 1021.0481737159386 426.4390525623429L1021.0481737159386 426.4390525623429L1021.0481737159386 429.9473240866761Q1021.0481737159386 448.68662808250434 1028.7777800825588 458.8121271974496Q1036.507386449179 468.93762631239485 1050.8542204064113 468.93762631239485ZM1109.8958631329936 428.1504045254323L1109.8958631329936 426.83836802039707Q1109.8958631329936 410.8942722309481 1116.1708203309877 398.1447001059325Q1122.445777528982 385.42365051363504 1133.626610354499 378.4926750631232Q1144.807443180016 371.59022214532956 1159.1257546045304 371.59022214532956L1159.1257546045304 371.59022214532956Q1181.2877625265373 371.59022214532956 1194.978578231252 386.9353447476973Q1208.6693939359666 402.28046735006507 1208.6693939359666 427.7510890673781L1208.6693939359666 427.7510890673781L1208.6693939359666 429.03460303969507Q1208.6693939359666 444.89313123098964 1202.5940944669994 457.4715681596963Q1196.5473175307504 470.05000508840294 1185.2523945743608 477.0665481370693Q1173.9859941506893 484.0830911857355 1159.3254123335573 484.0830911857355L1159.3254123335573 484.0830911857355Q1137.277494542423 484.0830911857355 1123.5866788377082 468.7379685833678Q1109.8958631329936 453.42136851371816 1109.8958631329936 428.1504045254323L1109.8958631329936 428.1504045254323ZM1128.5495995306674 429.03460303969507L1128.5495995306674 429.03460303969507Q1128.5495995306674 447.08936625028764 1136.935224149805 458.01349628134125Q1145.2923262362247 468.93762631239485 1159.3254123335573 468.93762631239485L1159.3254123335573 468.93762631239485Q1173.4725885617624 468.93762631239485 1181.801168115464 457.87088361775045Q1190.1297476691655 446.7756183903879 1190.1297476691655 426.83836802039707L1190.1297476691655 426.83836802039707Q1190.1297476691655 408.98326253883164 1181.658555451873 397.91651984418723Q1173.187363234581 386.82125461682466 1159.1257546045304 386.82125461682466L1159.1257546045304 386.82125461682466Q1145.4064163670973 386.82125461682466 1136.9637466825234 397.7453846478783Q1128.5495995306674 408.6980372116501 1128.5495995306674 429.03460303969507ZM1231.9437806339815 373.5867994356005L1249.4851382556474 373.5867994356005L1250.0841114427285 387.2205700748789Q1262.5199357078445 371.59022214532956 1282.5712762087078 371.59022214532956L1282.5712762087078 371.59022214532956Q1316.9694506668038 371.59022214532956 1317.2831985267035 410.38086664202126L1317.2831985267035 410.38086664202126L1317.2831985267035 482.08651389546463L1298.7150297271842 482.08651389546463L1298.7150297271842 410.2952990438668Q1298.6294621290294 398.54401556398665 1293.3527935761708 392.95359915122816Q1288.1046475560302 387.3346602057515 1276.9523372632311 387.3346602057515L1276.9523372632311 387.3346602057515Q1267.9392169242942 387.3346602057515 1261.1223316046548 392.1264457024016Q1254.3054462850157 396.94675373176995 1250.483426900783 404.7619276965446L1250.483426900783 404.7619276965446L1250.483426900783 482.08651389546463L1231.9437806339815 482.08651389546463L1231.9437806339815 373.5867994356005ZM1345.6631185812685 472.36033023857357L1345.6631185812685 472.36033023857357Q1345.6631185812685 467.54002220920523 1348.515371853084 464.3454985447718Q1351.3676251248994 461.1224523476202 1357.0721316685306 461.1224523476202Q1362.8051607448797 461.1224523476202 1365.74298161485 464.3454985447718Q1368.709325017538 467.54002220920523 1368.709325017538 472.36033023857357L1368.709325017538 472.36033023857357Q1368.709325017538 476.98098053891476 1365.74298161485 480.08993660519377Q1362.8051607448797 483.1988926714727 1357.0721316685306 483.1988926714727Q1351.3676251248994 483.1988926714727 1348.515371853084 480.08993660519377Q1345.6631185812685 476.98098053891476 1345.6631185812685 472.36033023857357ZM1419.450910723137 373.5867994356005L1419.450910723137 482.08651389546463L1400.9112644563359 482.08651389546463L1400.9112644563359 373.5867994356005L1419.450910723137 373.5867994356005ZM1399.3995702222737 344.8075639229814L1399.3995702222737 344.8075639229814Q1399.3995702222737 340.30100375351276 1402.1662558959347 337.1920476872338Q1404.9044190368777 334.08309162095486 1410.3237002533274 334.08309162095486Q1415.7429814697766 334.08309162095486 1418.538189676156 337.1920476872338Q1421.3619204152535 340.30100375351276 1421.3619204152535 344.8075639229814Q1421.3619204152535 349.31412409245 1418.538189676156 352.33751256057445Q1415.7429814697766 355.33237849598083 1410.3237002533274 355.33237849598083Q1404.9044190368777 355.33237849598083 1402.1662558959347 352.33751256057445Q1399.3995702222737 349.31412409245 1399.3995702222737 344.8075639229814ZM1444.2084691224961 428.1504045254323L1444.2084691224961 426.83836802039707Q1444.2084691224961 410.8942722309481 1450.4834263204905 398.1447001059325Q1456.7583835184846 385.42365051363504 1467.9392163440016 378.4926750631232Q1479.1200491695188 371.59022214532956 1493.4668831267509 371.59022214532956L1493.4668831267509 371.59022214532956Q1515.6003685160397 371.59022214532956 1529.2911842207545 386.9353447476973Q1542.9819999254694 402.28046735006507 1542.9819999254694 427.7510890673781L1542.9819999254694 427.7510890673781L1542.9819999254694 429.03460303969507Q1542.9819999254694 444.89313123098964 1536.9352229892202 457.4715681596963Q1530.859923520253 470.05000508840294 1519.5650005638636 477.0665481370693Q1508.2986001401919 484.0830911857355 1493.666540855778 484.0830911857355L1493.666540855778 484.0830911857355Q1471.5901005319256 484.0830911857355 1457.899284827211 468.7379685833678Q1444.2084691224961 453.42136851371816 1444.2084691224961 428.1504045254323L1444.2084691224961 428.1504045254323ZM1462.86220552017 429.03460303969507L1462.86220552017 429.03460303969507Q1462.86220552017 447.08936625028764 1471.247830139308 458.01349628134125Q1479.6049322257272 468.93762631239485 1493.666540855778 468.93762631239485L1493.666540855778 468.93762631239485Q1507.7851945512652 468.93762631239485 1516.1137741049665 457.87088361775045Q1524.4423536586683 446.7756183903879 1524.4423536586683 426.83836802039707L1524.4423536586683 426.83836802039707Q1524.4423536586683 408.98326253883164 1515.971161441376 397.91651984418723Q1507.4999692240835 386.82125461682466 1493.4668831267509 386.82125461682466L1493.4668831267509 386.82125461682466Q1479.7190223566 386.82125461682466 1471.3048752047441 397.7453846478783Q1462.86220552017 408.6980372116501 1462.86220552017 429.03460303969507Z " fill="#317773" transform="matrix(0.5676807800880053,0,0,0.5676807800880054,-0.9212532072804831,67.77140567088709)"/></g></svg>